<svg width="276" height="102" viewBox="0 0 276 102" fill="none" xmlns="http://www.w3.org/2000/svg">
<path d="M223.676 50.92H228.86C231.996 45.864 234.908 41.576 237.596 38.056C240.284 34.472 243.612 31.304 247.58 28.552C251.612 25.736 255.996 24.328 260.732 24.328C264.572 24.328 267.644 25.352 269.948 27.4C272.316 29.448 273.916 32.072 274.748 35.272C275.644 38.408 275.964 41.64 275.708 44.968C274.876 54.632 271.292 61.736 264.956 66.28C258.684 70.76 249.116 73 236.252 73H223.676V50.92ZM237.308 50.92C243.708 50.92 249.02 50.76 253.244 50.44C257.532 50.12 260.988 49.512 263.612 48.616C266.236 47.72 267.868 46.44 268.508 44.776C268.124 44.008 267.548 43.336 266.78 42.76C266.012 42.12 264.956 41.608 263.612 41.224C262.268 40.84 260.636 40.648 258.716 40.648C255.772 40.648 253.052 41.128 250.556 42.088C248.06 43.048 245.884 44.2 244.028 45.544C242.172 46.824 239.996 48.552 237.5 50.728L237.308 50.92ZM230.108 49.864C229.724 46.408 229.148 42.216 228.38 37.288C227.676 32.36 227.004 27.688 226.364 23.272C226.044 20.968 225.788 19.272 225.596 18.184C225.468 17.096 225.244 15.432 224.924 13.192L238.94 3.59199C239.836 2.95199 240.636 2.75999 241.34 3.016C242.044 3.272 242.396 4.008 242.396 5.224C242.396 6.82399 242.332 9.12799 242.204 12.136C242.076 15.144 241.948 18.248 241.82 21.448C241.756 24.072 241.628 26.056 241.436 27.4C241.052 30.024 240.348 32.392 239.324 34.504C238.364 36.616 237.116 38.952 235.58 41.512C235.26 42.024 234.94 42.536 234.62 43.048L230.108 49.864Z" fill="#059669"/>
<path d="M191.335 50.92H191.719C195.943 50.92 199.175 50.536 201.415 49.768C203.719 48.936 205.415 47.752 206.503 46.216C207.591 44.616 208.647 42.312 209.671 39.304C210.183 37.832 210.951 36.904 211.975 36.52C213.063 36.136 214.023 36.328 214.855 37.096C215.751 37.8 216.199 38.824 216.199 40.168C216.135 41.896 216.039 43.624 215.911 45.352C215.783 47.016 215.623 48.424 215.431 49.576C215.815 49.832 216.711 50.12 218.119 50.44C219.527 50.76 221.479 50.92 223.975 50.92H224.551L225.511 61.96L224.551 73H223.975C222.375 73 220.679 72.712 218.887 72.136C217.095 71.56 215.463 70.728 213.991 69.64C212.519 68.488 211.431 67.112 210.727 65.512C209.319 68.2 207.079 70.12 204.007 71.272C200.999 72.424 196.903 73 191.719 73H191.335V50.92ZM217.639 93.064C212.455 91.848 207.399 91.752 202.471 92.776C197.607 93.8 193.607 95.368 190.471 97.48C188.935 93.448 189.031 90.056 190.759 87.304C192.423 84.552 195.239 82.056 199.207 79.816C201.447 78.6 204.071 77.8 207.079 77.416C210.087 77.032 212.807 77.128 215.239 77.704C217.671 78.28 219.239 79.304 219.943 80.776C220.903 82.376 221.095 84.264 220.519 86.44C220.007 88.68 219.047 90.888 217.639 93.064Z" fill="#059669"/>
<path d="M161.436 101.032C160.476 101.096 158.844 100.008 156.54 97.768C154.3 95.592 151.868 93.032 149.244 90.088L147.42 88.072C146.652 87.24 146.396 86.44 146.652 85.672C146.972 84.904 147.804 84.424 149.148 84.232C153.308 83.656 157.756 82.536 162.492 80.872C167.228 79.272 171.26 77.384 174.588 75.208C177.916 73.032 179.676 70.856 179.868 68.68C180.444 61.96 179.9 56.776 178.236 53.128C176.636 49.416 174.748 46.952 172.572 45.736C170.396 44.52 168.284 43.816 166.236 43.624C164.636 43.432 163.164 43.528 161.82 43.912C160.54 44.296 159.42 44.84 158.46 45.544C157.564 46.248 156.892 46.984 156.444 47.752C157.084 48.776 158.172 49.576 159.708 50.152C161.244 50.728 162.844 51.144 164.508 51.4C166.236 51.592 167.74 51.656 169.02 51.592C172.668 51.464 176.284 51.368 179.868 51.304C184.476 51.176 189.052 51.048 193.596 50.92L194.556 61.96L193.596 73C188.924 73 184.252 73 179.58 73C176.7 73 174.556 73 173.148 73C171.74 73 169.628 73 166.812 73C161.052 72.936 156.54 70.984 153.276 67.144C150.076 63.24 149.02 56.904 150.108 48.136C150.556 44.488 151.484 41 152.892 37.672C154.3 34.28 156.22 31.528 158.652 29.416C161.148 27.304 164.124 26.312 167.58 26.44C171.42 26.632 175.004 28.36 178.332 31.624C181.724 34.824 184.444 39.56 186.492 45.832C188.604 52.04 189.66 59.432 189.66 68.008C189.66 74.344 188.124 79.944 185.052 84.808C181.98 89.672 178.236 93.48 173.82 96.232C169.404 98.984 165.276 100.584 161.436 101.032Z" fill="#059669"/>
<path d="M115.661 101.128C114.637 101.128 112.973 100.008 110.669 97.768C108.429 95.528 105.677 92.616 102.413 89.032L101.645 88.168C100.877 87.336 100.653 86.504 100.973 85.672C101.293 84.904 102.093 84.456 103.373 84.328C107.661 83.816 111.917 82.728 116.141 81.064C120.365 79.464 123.917 77.576 126.797 75.4C129.741 73.288 131.501 71.208 132.077 69.16C130.989 66.792 129.517 63.848 127.661 60.328C125.869 56.808 124.077 53.448 122.285 50.248L121.517 48.904L132.077 39.016C132.781 38.312 133.357 37.96 133.805 37.96C134.317 37.96 134.797 38.312 135.245 39.016C137.357 42.6 138.989 47.208 140.141 52.84C141.357 58.408 141.837 64.424 141.581 70.888C141.261 77.544 139.437 83.144 136.109 87.688C132.781 92.232 129.069 95.592 124.973 97.768C120.941 100.008 117.837 101.128 115.661 101.128Z" fill="#059669"/>
<path d="M80.1472 50.92H80.5312C84.3712 50.92 87.7312 50.728 90.6112 50.344C93.4912 49.896 95.3792 49.288 96.2752 48.52C95.3792 47.112 94.0352 45.16 92.2432 42.664C90.4512 40.104 88.6592 37.64 86.8672 35.272L97.4272 25.384C98.1952 24.68 98.8032 24.36 99.2512 24.424C99.7632 24.424 100.243 24.808 100.691 25.576C102.419 28.52 103.795 31.976 104.819 35.944C105.907 39.912 106.515 43.88 106.643 47.848C106.771 51.816 106.419 55.176 105.587 57.928C104.627 61 103.379 63.592 101.843 65.704C100.307 67.816 97.8432 69.576 94.4512 70.984C91.0592 72.328 86.4192 73 80.5312 73H80.2432L80.1472 50.92ZM108.179 16.744C102.995 15.528 97.9392 15.432 93.0112 16.456C88.1472 17.48 84.1473 19.048 81.0112 21.16C79.4752 17.128 79.5392 13.736 81.2032 10.984C82.9312 8.232 85.7792 5.736 89.7472 3.496C91.9873 2.28 94.6112 1.48 97.6192 1.096C100.627 0.711997 103.347 0.807995 105.779 1.384C108.211 1.96 109.779 2.984 110.483 4.456C111.443 6.056 111.635 7.976 111.059 10.216C110.547 12.392 109.587 14.568 108.179 16.744Z" fill="#059669"/>
<path d="M33.384 52.36H33.576C38.632 52.36 42.568 52.136 45.384 51.688C48.264 51.24 50.152 50.312 51.048 48.904C49.512 46.92 48.04 45.128 46.632 43.528C45.224 41.864 43.72 40.168 42.12 38.44C40.52 36.712 38.696 34.792 36.648 32.68L38.568 18.856L73.032 3.784C74.248 3.272 75.144 3.272 75.72 3.784C76.36 4.296 76.584 5.064 76.392 6.088L73.32 23.176L45.864 34.12L47.496 23.944C51.208 26.376 54.344 29.736 56.904 34.024C59.464 38.312 61.16 42.888 61.992 47.752C62.824 52.552 62.632 56.968 61.416 61C60.392 64.328 58.472 66.984 55.656 68.968C52.904 70.952 49.64 72.36 45.864 73.192C42.088 74.024 37.992 74.44 33.576 74.44H33.384V52.36ZM33.576 74.44C22.504 74.44 14.216 72.264 8.712 67.912C3.272 63.56 0.392002 58.12 0.0720019 51.592C-0.183998 45 1.512 38.504 5.16 32.104C5.992 30.696 6.984 29.896 8.136 29.704C9.352 29.512 10.312 29.896 11.016 30.856C11.72 31.752 11.88 32.936 11.496 34.408C10.024 39.976 10.12 44.072 11.784 46.696C13.512 49.32 16.04 50.92 19.368 51.496C22.76 52.072 27.496 52.36 33.576 52.36H33.672V74.44H33.576ZM80.136 73C76.168 73 72.808 72.168 70.056 70.504C67.368 68.84 65.096 66.728 63.24 64.168C61.384 61.608 59.144 58.024 56.52 53.416L54.504 49.864C53.864 48.776 53.384 46.472 53.064 42.952C52.808 39.368 52.776 36.168 52.968 33.352C53.16 30.472 53.544 29.384 54.12 30.088C55.592 32.008 57.064 33.928 58.536 35.848C62.888 41.416 65.896 45.096 67.56 46.888C69.224 48.68 70.824 49.8 72.36 50.248C73.896 50.696 76.488 50.92 80.136 50.92H81L81.96 61.96L81 73H80.136Z" fill="#059669"/>
</svg>
